<mxfile host="app.diagrams.net" agent="Mozilla/5.0 (X11; Linux x86_64) AppleWebKit/537.36 (KHTML, like Gecko) Chrome/109.0.0.0 Safari/537.36" version="24.7.7">
  <diagram name="Page-1" id="xKkeJtTzqhyItKxkD03H">
    <mxGraphModel dx="772" dy="952" grid="0" gridSize="10" guides="1" tooltips="1" connect="1" arrows="1" fold="1" page="0" pageScale="1" pageWidth="850" pageHeight="1100" math="0" shadow="0">
      <root>
        <mxCell id="0" />
        <mxCell id="1" parent="0" />
        <mxCell id="Xd2Pq8fmnuuHt6xtP_GV-47" value="" style="edgeStyle=none;curved=1;rounded=0;orthogonalLoop=1;jettySize=auto;html=1;fontSize=12;startSize=8;endSize=8;" edge="1" parent="1" source="Xd2Pq8fmnuuHt6xtP_GV-15" target="Xd2Pq8fmnuuHt6xtP_GV-46">
          <mxGeometry relative="1" as="geometry" />
        </mxCell>
        <mxCell id="Xd2Pq8fmnuuHt6xtP_GV-15" value="" style="rounded=1;whiteSpace=wrap;html=1;" vertex="1" parent="1">
          <mxGeometry x="116.25" y="-125" width="131" height="65" as="geometry" />
        </mxCell>
        <mxCell id="Xd2Pq8fmnuuHt6xtP_GV-49" value="" style="edgeStyle=none;curved=1;rounded=0;orthogonalLoop=1;jettySize=auto;html=1;fontSize=12;startSize=8;endSize=8;" edge="1" parent="1" source="Xd2Pq8fmnuuHt6xtP_GV-46" target="Xd2Pq8fmnuuHt6xtP_GV-48">
          <mxGeometry relative="1" as="geometry" />
        </mxCell>
        <mxCell id="Xd2Pq8fmnuuHt6xtP_GV-46" value="" style="whiteSpace=wrap;html=1;rounded=1;" vertex="1" parent="1">
          <mxGeometry x="121.75" y="6" width="120" height="60" as="geometry" />
        </mxCell>
        <mxCell id="Xd2Pq8fmnuuHt6xtP_GV-48" value="" style="whiteSpace=wrap;html=1;rounded=1;" vertex="1" parent="1">
          <mxGeometry x="324" y="4" width="120" height="60" as="geometry" />
        </mxCell>
        <mxCell id="Xd2Pq8fmnuuHt6xtP_GV-50" value="" style="whiteSpace=wrap;html=1;rounded=1;" vertex="1" parent="1">
          <mxGeometry x="324" y="95" width="120" height="60" as="geometry" />
        </mxCell>
        <mxCell id="Xd2Pq8fmnuuHt6xtP_GV-52" value="" style="whiteSpace=wrap;html=1;rounded=1;" vertex="1" parent="1">
          <mxGeometry x="325" y="186" width="120" height="60" as="geometry" />
        </mxCell>
        <mxCell id="Xd2Pq8fmnuuHt6xtP_GV-54" value="Login" style="text;html=1;align=center;verticalAlign=middle;whiteSpace=wrap;rounded=0;fontSize=16;" vertex="1" parent="1">
          <mxGeometry x="148" y="-107.5" width="60" height="30" as="geometry" />
        </mxCell>
        <mxCell id="Xd2Pq8fmnuuHt6xtP_GV-56" value="Siswa" style="text;html=1;align=center;verticalAlign=middle;whiteSpace=wrap;rounded=0;fontSize=16;" vertex="1" parent="1">
          <mxGeometry x="145" y="21" width="60" height="30" as="geometry" />
        </mxCell>
        <mxCell id="Xd2Pq8fmnuuHt6xtP_GV-57" value="Ruang uks" style="text;html=1;align=center;verticalAlign=middle;whiteSpace=wrap;rounded=0;fontSize=16;" vertex="1" parent="1">
          <mxGeometry x="337" y="19" width="99" height="30" as="geometry" />
        </mxCell>
        <mxCell id="Xd2Pq8fmnuuHt6xtP_GV-58" value="Persediaan obat" style="text;html=1;align=center;verticalAlign=middle;whiteSpace=wrap;rounded=0;fontSize=16;" vertex="1" parent="1">
          <mxGeometry x="352" y="113" width="60" height="30" as="geometry" />
        </mxCell>
        <mxCell id="Xd2Pq8fmnuuHt6xtP_GV-59" value="Kembali ke kelas" style="text;html=1;align=center;verticalAlign=middle;whiteSpace=wrap;rounded=0;fontSize=16;" vertex="1" parent="1">
          <mxGeometry x="355" y="203" width="60" height="30" as="geometry" />
        </mxCell>
        <mxCell id="Xd2Pq8fmnuuHt6xtP_GV-65" value="" style="edgeStyle=none;curved=1;rounded=0;orthogonalLoop=1;jettySize=auto;html=1;fontSize=12;startSize=8;endSize=8;exitX=0.45;exitY=1;exitDx=0;exitDy=0;exitPerimeter=0;" edge="1" parent="1" source="Xd2Pq8fmnuuHt6xtP_GV-48">
          <mxGeometry relative="1" as="geometry">
            <mxPoint x="380" y="72" as="sourcePoint" />
            <mxPoint x="378" y="93" as="targetPoint" />
            <Array as="points">
              <mxPoint x="378" y="80" />
            </Array>
          </mxGeometry>
        </mxCell>
        <mxCell id="Xd2Pq8fmnuuHt6xtP_GV-67" value="" style="edgeStyle=none;curved=1;rounded=0;orthogonalLoop=1;jettySize=auto;html=1;fontSize=12;startSize=8;endSize=8;exitX=0.45;exitY=1;exitDx=0;exitDy=0;exitPerimeter=0;" edge="1" parent="1">
          <mxGeometry relative="1" as="geometry">
            <mxPoint x="381" y="156" as="sourcePoint" />
            <mxPoint x="381" y="185" as="targetPoint" />
            <Array as="points">
              <mxPoint x="381" y="172" />
            </Array>
          </mxGeometry>
        </mxCell>
      </root>
    </mxGraphModel>
  </diagram>
</mxfile>
